<svg width="125" height="35" viewBox="0 0 125 35" fill="none" xmlns="http://www.w3.org/2000/svg">
<g clip-path="url(#clip0_0_1)">
<path d="M32.4211 0H2.57895C1.15463 0 0 1.15463 0 2.57895V32.4211C0 33.8454 1.15463 35 2.57895 35H32.4211C33.8454 35 35 33.8454 35 32.4211V2.57895C35 1.15463 33.8454 0 32.4211 0Z" fill="#C01631"/>
<path d="M5.1582 4.78906H8.7796L11.2706 10.8596H11.3962L13.8873 4.78906H17.5087V15.5068H14.6618V9.31058H14.5781L12.1917 15.423H10.4752L8.08881 9.26873H8.0051V15.5068H5.1582V4.78906Z" fill="white"/>
<path d="M21.9105 15.6533V13.3925H22.4338C22.7409 13.3925 22.9833 13.3681 23.1613 13.3193C23.3427 13.2669 23.4823 13.1762 23.5799 13.0471C23.6811 12.9146 23.7666 12.7296 23.8364 12.4924L23.941 12.1784L19.9219 4.78906H22.8944L25.1342 9.14314L26.8507 4.78906H29.7813L26.0971 13.1623C25.8948 13.6019 25.6541 14.0118 25.3749 14.3921C25.0958 14.7689 24.7487 15.0742 24.3335 15.3079C23.9184 15.5382 23.4037 15.6533 22.7897 15.6533H21.9105Z" fill="white"/>
<path d="M5.1582 19.1582H8.06788V24.7683H8.15162L11.9614 19.1582H14.4315V29.8759H11.5218V24.2449H11.4591L7.58643 29.8759H5.1582V19.1582Z" fill="white"/>
<path d="M17.6846 29.8759V24.5171V19.1582H24.7348C25.5512 19.1582 26.2368 19.2681 26.7915 19.4879C27.3497 19.7077 27.7701 20.0182 28.0527 20.4194C28.3388 20.8206 28.4818 21.2934 28.4818 21.8376C28.4818 22.2319 28.3946 22.5912 28.2202 22.9157C28.0492 23.2401 27.8085 23.5123 27.498 23.7321C27.1875 23.9484 26.8246 24.0984 26.4094 24.1821V24.2868C26.87 24.3042 27.2886 24.4211 27.6654 24.6374C28.0422 24.8502 28.3423 25.145 28.5656 25.5218C28.7889 25.8951 28.9005 26.3348 28.9005 26.8406C28.9005 27.4268 28.747 27.9483 28.44 28.4054C28.1364 28.8624 27.7038 29.2217 27.1421 29.4834C26.5804 29.7451 25.9106 29.8759 25.1325 29.8759H17.6846ZM20.6403 27.5523H24.358C24.8465 27.5523 25.2128 27.4616 25.457 27.2802C25.7012 27.0953 25.8233 26.8232 25.8233 26.4638C25.8233 26.2126 25.7658 25.9998 25.6506 25.8254C25.5355 25.6509 25.3715 25.5184 25.1587 25.4276C24.9494 25.3369 24.6964 25.2916 24.3999 25.2916H20.6403V26.422V27.5523ZM20.6403 23.4914H24.1906C24.4452 23.4914 24.6703 23.4512 24.8656 23.371C25.061 23.2907 25.2128 23.1756 25.3209 23.0256C25.4326 22.8721 25.4884 22.6854 25.4884 22.4656C25.4884 22.1342 25.3698 21.8812 25.1325 21.7068C24.8953 21.5289 24.5953 21.4399 24.2324 21.4399H20.6403V22.4656V23.4914Z" fill="white"/>
</g>
<path d="M50.8047 7.32102H50.1683C50.102 6.97633 49.9777 6.64323 49.7955 6.32173C49.6132 5.99692 49.3778 5.70526 49.0895 5.44673C48.8045 5.1849 48.473 4.97775 48.0952 4.82528C47.7173 4.67282 47.2997 4.59659 46.8423 4.59659C46.1728 4.59659 45.5563 4.77557 44.9929 5.13352C44.4328 5.48816 43.9837 6.01018 43.6456 6.69957C43.3108 7.38897 43.1435 8.23248 43.1435 9.23011C43.1435 10.2344 43.3108 11.0812 43.6456 11.7706C43.9837 12.46 44.4328 12.982 44.9929 13.3366C45.5563 13.688 46.1728 13.8636 46.8423 13.8636C47.2997 13.8636 47.7173 13.7891 48.0952 13.6399C48.473 13.4875 48.8045 13.282 49.0895 13.0234C49.3778 12.7616 49.6132 12.4683 49.7955 12.1435C49.9777 11.8187 50.102 11.4839 50.1683 11.1392H50.8047C50.7318 11.5502 50.5909 11.9529 50.3821 12.3473C50.1766 12.7417 49.9048 13.0997 49.5668 13.4212C49.232 13.7393 48.8359 13.9929 48.3786 14.1818C47.9245 14.3674 47.4124 14.4602 46.8423 14.4602C45.9938 14.4602 45.2464 14.2448 44.6001 13.8139C43.9538 13.3797 43.4467 12.7699 43.0788 11.9844C42.7143 11.1989 42.532 10.2808 42.532 9.23011C42.532 8.17945 42.7143 7.26136 43.0788 6.47585C43.4467 5.69034 43.9538 5.08215 44.6001 4.65128C45.2464 4.21709 45.9938 4 46.8423 4C47.4124 4 47.9245 4.09446 48.3786 4.28338C48.8359 4.46899 49.232 4.72088 49.5668 5.03906C49.9048 5.35393 50.1766 5.70857 50.3821 6.10298C50.5909 6.4974 50.7318 6.90341 50.8047 7.32102Z" fill="#C01631"/>
<path d="M53.0096 14.321V6.68466H58.5629V14.321H57.9613V7.26136H53.6112V14.321H53.0096Z" fill="#C01631"/>
<path d="M63.9533 14.4801C63.3236 14.4801 62.7634 14.3111 62.2729 13.973C61.7824 13.6316 61.3962 13.1626 61.1145 12.5661C60.8328 11.9695 60.6919 11.29 60.6919 10.5277C60.6919 9.76207 60.8328 9.08262 61.1145 8.48935C61.3962 7.89276 61.7824 7.42377 62.2729 7.08239C62.7634 6.741 63.3236 6.57031 63.9533 6.57031C64.583 6.57031 65.1432 6.741 65.6337 7.08239C66.1242 7.42377 66.5104 7.89276 66.7921 8.48935C67.0738 9.08594 67.2147 9.76539 67.2147 10.5277C67.2147 11.29 67.0738 11.9695 66.7921 12.5661C66.5104 13.1626 66.1242 13.6316 65.6337 13.973C65.1432 14.3111 64.583 14.4801 63.9533 14.4801ZM63.9533 13.9183C64.4869 13.9183 64.9526 13.7675 65.3503 13.4659C65.7514 13.1643 66.0613 12.7566 66.28 12.2429C66.5021 11.7292 66.6131 11.1574 66.6131 10.5277C66.6131 9.89796 66.5021 9.32789 66.28 8.81747C66.0579 8.30374 65.748 7.89607 65.3503 7.59446C64.9526 7.28954 64.4869 7.13707 63.9533 7.13707C63.4197 7.13707 62.954 7.28954 62.5563 7.59446C62.1586 7.89607 61.8487 8.30374 61.6266 8.81747C61.4045 9.32789 61.2935 9.89796 61.2935 10.5277C61.2935 11.1574 61.4029 11.7292 61.6216 12.2429C61.8437 12.7566 62.1536 13.1643 62.5513 13.4659C62.9524 13.7675 63.4197 13.9183 63.9533 13.9183Z" fill="#C01631"/>
<path d="M69.304 17.1847V6.68466H69.8956V8.38991H69.9702C70.0895 8.06179 70.2569 7.76018 70.4723 7.48509C70.6911 7.20999 70.9612 6.98958 71.2827 6.82386C71.6075 6.65483 71.9886 6.57031 72.4261 6.57031C73.0426 6.57031 73.5795 6.73935 74.0369 7.07742C74.4943 7.41548 74.849 7.88281 75.1009 8.4794C75.3527 9.07268 75.4787 9.75379 75.4787 10.5227C75.4787 11.2917 75.3511 11.9744 75.0959 12.571C74.844 13.1643 74.4893 13.6316 74.032 13.973C73.5779 14.3111 73.0459 14.4801 72.4361 14.4801C72.0019 14.4801 71.6207 14.3973 71.2926 14.2315C70.9678 14.0658 70.6944 13.8454 70.4723 13.5703C70.2536 13.2919 70.0862 12.987 69.9702 12.6555H69.9105V17.1847H69.304ZM69.9006 10.5178C69.9006 11.1674 70 11.7491 70.1989 12.2628C70.3977 12.7732 70.6828 13.1776 71.054 13.4759C71.4252 13.7708 71.8677 13.9183 72.3814 13.9183C72.9018 13.9183 73.3475 13.7692 73.7188 13.4709C74.0933 13.1693 74.3783 12.7616 74.5739 12.2479C74.7727 11.7341 74.8722 11.1574 74.8722 10.5178C74.8722 9.87808 74.7744 9.30303 74.5788 8.79261C74.3833 8.2822 74.0999 7.8795 73.7287 7.58452C73.3575 7.28622 72.9084 7.13707 72.3814 7.13707C71.861 7.13707 71.4152 7.28456 71.044 7.57955C70.6761 7.87121 70.3928 8.27225 70.1939 8.78267C69.9983 9.28977 69.9006 9.86813 69.9006 10.5178Z" fill="#C01631"/>
<path d="M76.5277 7.26136V6.68466H82.255V7.26136H79.7095V14.321H79.103V7.26136H76.5277Z" fill="#C01631"/>
<path d="M84.8812 13.5305L89.2612 6.68466H90.0318V14.321H89.4252V7.47514L85.0502 14.321H84.2747V6.68466H84.8812V13.5305Z" fill="#C01631"/>
<path d="M92.5462 14.321V6.68466H95.4446C96.25 6.68466 96.8797 6.85204 97.3338 7.18679C97.7879 7.51823 98.0133 7.97396 98.0099 8.55398C98.0066 8.99811 97.8807 9.366 97.6321 9.65767C97.3835 9.94602 97.0372 10.1565 96.593 10.2891C96.9013 10.352 97.1747 10.4697 97.4134 10.642C97.6553 10.8144 97.8459 11.0348 97.9851 11.3033C98.1243 11.5684 98.1939 11.8783 98.1939 12.233C98.1939 12.6373 98.0961 12.9969 97.9006 13.3118C97.705 13.6233 97.4299 13.8703 97.0753 14.0526C96.724 14.2315 96.313 14.321 95.8423 14.321H92.5462ZM93.1328 13.7493H95.8423C96.3693 13.7493 96.7919 13.6068 97.1101 13.3217C97.4283 13.0367 97.5874 12.6589 97.5874 12.1882C97.5874 11.7275 97.4432 11.353 97.1548 11.0646C96.8698 10.773 96.4986 10.6271 96.0412 10.6271H93.1328V13.7493ZM93.1328 10.0803H95.549C95.9235 10.0803 96.25 10.0189 96.5284 9.89631C96.8101 9.77036 97.0272 9.5947 97.1797 9.36932C97.3321 9.14063 97.4084 8.87713 97.4084 8.57884C97.4051 8.15791 97.2327 7.8331 96.8913 7.6044C96.5533 7.3724 96.071 7.25639 95.4446 7.25639H93.1328V10.0803Z" fill="#C01631"/>
<path d="M105.503 10.2195V10.7962H100.736V10.2195H105.503ZM100.905 6.68466V14.321H100.298V6.68466H100.905ZM105.916 6.68466V14.321H105.309V6.68466H105.916Z" fill="#C01631"/>
<path d="M108.947 9.82173H111.224C112.05 9.82173 112.693 10.0107 113.153 10.3885C113.614 10.7663 113.844 11.3215 113.844 12.054C113.844 12.5412 113.74 12.9538 113.531 13.2919C113.326 13.63 113.027 13.8868 112.636 14.0625C112.245 14.2348 111.775 14.321 111.224 14.321H108.49V6.68466H109.092V13.7443H111.224C111.841 13.7443 112.331 13.6101 112.696 13.3416C113.061 13.0698 113.243 12.6473 113.243 12.0739C113.243 11.5038 113.061 11.0829 112.696 10.8111C112.331 10.536 111.841 10.3984 111.224 10.3984H108.947V9.82173ZM115.202 14.321V6.68466H115.808V14.321H115.202Z" fill="#C01631"/>
<path d="M121.323 14.4801C120.634 14.4801 120.034 14.3094 119.523 13.968C119.013 13.6267 118.618 13.1593 118.34 12.5661C118.062 11.9728 117.922 11.2966 117.922 10.5376C117.922 9.77533 118.062 9.09588 118.34 8.49929C118.622 7.9027 119.008 7.43206 119.498 7.08736C119.989 6.74266 120.549 6.57031 121.179 6.57031C121.606 6.57031 122.011 6.65649 122.392 6.82884C122.776 6.99787 123.114 7.24313 123.406 7.56463C123.701 7.88613 123.931 8.27391 124.097 8.72798C124.266 9.18206 124.351 9.69247 124.351 10.2592V10.6371H118.305V10.0852H123.744C123.744 9.53172 123.631 9.03291 123.406 8.58878C123.181 8.14465 122.874 7.79167 122.486 7.52983C122.099 7.26799 121.663 7.13707 121.179 7.13707C120.672 7.13707 120.219 7.27959 119.822 7.56463C119.427 7.84635 119.114 8.22751 118.882 8.7081C118.653 9.18868 118.534 9.72562 118.524 10.3189V10.5675C118.524 11.2038 118.635 11.7756 118.857 12.2827C119.082 12.7865 119.404 13.1858 119.822 13.4808C120.239 13.7725 120.74 13.9183 121.323 13.9183C121.741 13.9183 122.097 13.8487 122.392 13.7095C122.69 13.567 122.934 13.3946 123.123 13.1925C123.312 12.9903 123.454 12.7947 123.55 12.6058L124.102 12.8295C123.986 13.0848 123.805 13.34 123.56 13.5952C123.318 13.8471 123.01 14.0575 122.635 14.2266C122.264 14.3956 121.827 14.4801 121.323 14.4801Z" fill="#C01631"/>
<path d="M42 33.8018V30.7443H42.6364C42.8849 30.456 43.107 30.0997 43.3026 29.6754C43.4981 29.2479 43.6589 28.7109 43.7848 28.0646C43.9141 27.4183 43.9986 26.6262 44.0384 25.6882L44.2223 21.1392H49.8253V30.7443H51.0384V33.767H50.4318V31.321H42.6065V33.8018H42ZM43.392 30.7443H49.2188V21.7159H44.799L44.6399 25.6882C44.6068 26.4969 44.5405 27.2112 44.4411 27.831C44.3416 28.4474 44.2041 28.9927 44.0284 29.4666C43.8561 29.9373 43.6439 30.3632 43.392 30.7443Z" fill="#C01631"/>
<path d="M55.7912 31.4801C55.1615 31.4801 54.6013 31.3111 54.1108 30.973C53.6203 30.6316 53.2341 30.1626 52.9524 29.5661C52.6707 28.9695 52.5298 28.29 52.5298 27.5277C52.5298 26.7621 52.6707 26.0826 52.9524 25.4893C53.2341 24.8928 53.6203 24.4238 54.1108 24.0824C54.6013 23.741 55.1615 23.5703 55.7912 23.5703C56.4209 23.5703 56.9811 23.741 57.4716 24.0824C57.9621 24.4238 58.3482 24.8928 58.63 25.4893C58.9117 26.0859 59.0526 26.7654 59.0526 27.5277C59.0526 28.29 58.9117 28.9695 58.63 29.5661C58.3482 30.1626 57.9621 30.6316 57.4716 30.973C56.9811 31.3111 56.4209 31.4801 55.7912 31.4801ZM55.7912 30.9183C56.3248 30.9183 56.7905 30.7675 57.1882 30.4659C57.5893 30.1643 57.8991 29.7566 58.1179 29.2429C58.34 28.7292 58.451 28.1574 58.451 27.5277C58.451 26.898 58.34 26.3279 58.1179 25.8175C57.8958 25.3037 57.5859 24.8961 57.1882 24.5945C56.7905 24.2895 56.3248 24.1371 55.7912 24.1371C55.2576 24.1371 54.7919 24.2895 54.3942 24.5945C53.9964 24.8961 53.6866 25.3037 53.4645 25.8175C53.2424 26.3279 53.1314 26.898 53.1314 27.5277C53.1314 28.1574 53.2408 28.7292 53.4595 29.2429C53.6816 29.7566 53.9915 30.1643 54.3892 30.4659C54.7902 30.7675 55.2576 30.9183 55.7912 30.9183Z" fill="#C01631"/>
<path d="M64.0055 31.4801C63.3559 31.4801 62.7842 31.3094 62.2903 30.968C61.7965 30.6233 61.4103 30.1527 61.1319 29.5561C60.8568 28.9595 60.7193 28.2834 60.7193 27.5277C60.7193 26.772 60.8585 26.0959 61.1369 25.4993C61.4153 24.9027 61.8014 24.4321 62.2953 24.0874C62.7891 23.7427 63.3575 23.5703 64.0005 23.5703C64.4844 23.5703 64.9252 23.6697 65.323 23.8686C65.724 24.0675 66.0555 24.3442 66.3173 24.6989C66.5824 25.0535 66.7515 25.4645 66.8244 25.9318H66.2079C66.1085 25.4148 65.8599 24.9872 65.4622 24.6491C65.0678 24.3078 64.5822 24.1371 64.0055 24.1371C63.4885 24.1371 63.0278 24.2829 62.6234 24.5746C62.219 24.8629 61.9009 25.2623 61.6689 25.7727C61.4368 26.2798 61.3208 26.8615 61.3208 27.5178C61.3208 28.1641 61.4335 28.7441 61.6589 29.2578C61.8843 29.7682 62.1992 30.1726 62.6035 30.4709C63.0079 30.7692 63.4752 30.9183 64.0055 30.9183C64.38 30.9183 64.7214 30.8438 65.0297 30.6946C65.3412 30.5455 65.6014 30.3333 65.8102 30.0582C66.019 29.7831 66.1565 29.4616 66.2228 29.0938H66.8393C66.7664 29.5644 66.6007 29.9787 66.3422 30.3366C66.0836 30.6946 65.7538 30.9747 65.3528 31.1768C64.9518 31.379 64.5027 31.4801 64.0055 31.4801Z" fill="#C01631"/>
<path d="M68.2562 24.2614V23.6847H73.9835V24.2614H71.438V31.321H70.8315V24.2614H68.2562Z" fill="#C01631"/>
<path d="M76.6097 30.5305L80.9897 23.6847H81.7603V31.321H81.1538V24.4751L76.7788 31.321H76.0032V23.6847H76.6097V30.5305Z" fill="#C01631"/>
<path d="M83.7974 31.321L87.4466 27.483L83.8521 23.6847H84.6127L87.9288 27.2095H88.3216V23.6847H88.9231V27.2095H89.3059L92.622 23.6847H93.3826L89.7981 27.483L93.4373 31.321H92.6618L89.301 27.7862H88.9231V31.321H88.3216V27.7862H87.9437L84.573 31.321H83.7974Z" fill="#C01631"/>
<path d="M98.1355 31.4801C97.4461 31.4801 96.8462 31.3094 96.3358 30.968C95.8253 30.6267 95.4309 30.1593 95.1525 29.5661C94.8741 28.9728 94.7349 28.2966 94.7349 27.5376C94.7349 26.7753 94.8741 26.0959 95.1525 25.4993C95.4342 24.9027 95.8204 24.4321 96.3109 24.0874C96.8014 23.7427 97.3616 23.5703 97.9913 23.5703C98.4189 23.5703 98.8232 23.6565 99.2044 23.8288C99.5888 23.9979 99.9269 24.2431 100.219 24.5646C100.514 24.8861 100.744 25.2739 100.91 25.728C101.079 26.1821 101.163 26.6925 101.163 27.2592V27.6371H95.1177V27.0852H100.557C100.557 26.5317 100.444 26.0329 100.219 25.5888C99.9932 25.1447 99.6866 24.7917 99.2988 24.5298C98.911 24.268 98.4752 24.1371 97.9913 24.1371C97.4842 24.1371 97.0318 24.2796 96.6341 24.5646C96.2396 24.8464 95.9264 25.2275 95.6944 25.7081C95.4657 26.1887 95.3464 26.7256 95.3365 27.3189V27.5675C95.3365 28.2038 95.4475 28.7756 95.6696 29.2827C95.8949 29.7865 96.2164 30.1858 96.6341 30.4808C97.0517 30.7725 97.5521 30.9183 98.1355 30.9183C98.5531 30.9183 98.9094 30.8487 99.2044 30.7095C99.5027 30.567 99.7463 30.3947 99.9352 30.1925C100.124 29.9903 100.267 29.7947 100.363 29.6058L100.915 29.8295C100.799 30.0848 100.618 30.34 100.373 30.5952C100.131 30.8471 99.8225 31.0575 99.448 31.2266C99.0768 31.3956 98.6393 31.4801 98.1355 31.4801Z" fill="#C01631"/>
<path d="M108.456 27.2195V27.7962H103.689V27.2195H108.456ZM103.858 23.6847V31.321H103.251V23.6847H103.858ZM108.869 23.6847V31.321H108.263V23.6847H108.869Z" fill="#C01631"/>
<path d="M112.02 30.5305L116.4 23.6847H117.17V31.321H116.564V24.4751L112.189 31.321H111.413V23.6847H112.02V30.5305Z" fill="#C01631"/>
<path d="M124.279 31.321V24.2464L122.106 24.2564C121.466 24.2564 120.994 24.3757 120.689 24.6143C120.387 24.853 120.237 25.2375 120.237 25.7678C120.237 26.2914 120.386 26.6726 120.684 26.9112C120.982 27.1499 121.441 27.2692 122.061 27.2692H124.487V27.8459H122.061C121.521 27.8459 121.07 27.7696 120.709 27.6172C120.351 27.4614 120.083 27.2294 119.904 26.9212C119.725 26.6129 119.635 26.2285 119.635 25.7678C119.635 25.3037 119.726 24.9176 119.909 24.6094C120.091 24.3011 120.364 24.0708 120.729 23.9183C121.097 23.7625 121.556 23.6847 122.106 23.6847H124.865V31.321H124.279ZM119.083 31.321L121.311 27.5227H121.982L119.754 31.321H119.083Z" fill="#C01631"/>
<defs>
<clipPath id="clip0_0_1">
<rect width="35" height="35" fill="white"/>
</clipPath>
</defs>
</svg>
