        <svg width="35" height="35" viewBox="0 0 95 95" fill="none" xmlns="http://www.w3.org/2000/svg">
            <rect width="95" height="95" rx="7" fill="#C01631"/>
            <path d="M14 13H23.8295L30.5909 29.4773H30.9318L37.6932 13H47.5227V42.0909H39.7955V25.2727H39.5682L33.0909 41.8636H28.4318L21.9545 25.1591H21.7273V42.0909H14V13Z" fill="white"/>
            <path d="M59.4702 42.4886V36.3523H60.8906C61.724 36.3523 62.3821 36.286 62.8651 36.1534C63.3575 36.0114 63.7363 35.7652 64.0014 35.4148C64.276 35.0549 64.5081 34.553 64.6974 33.9091L64.9815 33.0568L54.0724 13H62.1406L68.2202 24.8182L72.8793 13H80.8338L70.8338 35.7273C70.2846 36.9205 69.6312 38.0331 68.8736 39.0653C68.116 40.0881 67.1738 40.9167 66.0469 41.5511C64.92 42.1761 63.5232 42.4886 61.8565 42.4886H59.4702Z" fill="white"/>
            <path d="M14 52H21.8977V67.2273H22.125L32.4659 52H39.1705V81.0909H31.2727V65.8068H31.1023L20.5909 81.0909H14V52Z" fill="white"/>
            <path d="M48 81.0909V66.5455V52H67.1364C69.3523 52 71.2131 52.2983 72.7188 52.8949C74.2339 53.4915 75.375 54.3343 76.1421 55.4233C76.9186 56.5123 77.3068 57.7955 77.3068 59.2727C77.3068 60.3428 77.0701 61.3182 76.5966 62.1989C76.1326 63.0795 75.4792 63.8182 74.6364 64.4148C73.7936 65.0019 72.8087 65.4091 71.6818 65.6364V65.9205C72.9318 65.9678 74.0682 66.285 75.0909 66.8722C76.1136 67.4498 76.928 68.25 77.5341 69.2727C78.1402 70.286 78.4432 71.4792 78.4432 72.8523C78.4432 74.4432 78.0265 75.8589 77.1932 77.0994C76.3693 78.34 75.1951 79.3153 73.6705 80.0256C72.1458 80.7358 70.3277 81.0909 68.2159 81.0909H48ZM56.0227 74.7841H66.1136C67.4394 74.7841 68.4337 74.5379 69.0966 74.0455C69.7595 73.5436 70.0909 72.8049 70.0909 71.8295C70.0909 71.1477 69.9347 70.5701 69.6222 70.0966C69.3097 69.6231 68.8646 69.2633 68.2869 69.017C67.7188 68.7708 67.0322 68.6477 66.2273 68.6477H56.0227V71.7159V74.7841ZM56.0227 63.7614H65.6591C66.3504 63.7614 66.9612 63.6525 67.4915 63.4347C68.0218 63.2169 68.4337 62.9044 68.7273 62.4972C69.0303 62.0805 69.1818 61.5739 69.1818 60.9773C69.1818 60.0777 68.8599 59.3911 68.2159 58.9176C67.572 58.4347 66.7576 58.1932 65.7727 58.1932H56.0227V60.9773V63.7614Z" fill="white"/>
            </svg>